<mxfile host="app.diagrams.net" agent="Mozilla/5.0 (Windows NT 10.0; Win64; x64) AppleWebKit/537.36 (KHTML, like Gecko) Chrome/131.0.0.0 Safari/537.36 Edg/131.0.0.0" version="24.8.8">
  <diagram name="Page-1" id="nKJin4UUrjbXqC5Sf6yN">
    <mxGraphModel dx="1042" dy="565" grid="1" gridSize="10" guides="1" tooltips="1" connect="1" arrows="1" fold="1" page="1" pageScale="1" pageWidth="850" pageHeight="1100" math="0" shadow="0">
      <root>
        <mxCell id="0" />
        <mxCell id="1" parent="0" />
        <mxCell id="18vE8TkWJ5ZGs5HDcE4w-3" value="" style="edgeStyle=orthogonalEdgeStyle;rounded=0;orthogonalLoop=1;jettySize=auto;html=1;" edge="1" parent="1" source="18vE8TkWJ5ZGs5HDcE4w-1" target="18vE8TkWJ5ZGs5HDcE4w-2">
          <mxGeometry relative="1" as="geometry" />
        </mxCell>
        <mxCell id="18vE8TkWJ5ZGs5HDcE4w-1" value="start" style="strokeWidth=2;html=1;shape=mxgraph.flowchart.start_1;whiteSpace=wrap;" vertex="1" parent="1">
          <mxGeometry x="375" y="60" width="100" height="60" as="geometry" />
        </mxCell>
        <mxCell id="18vE8TkWJ5ZGs5HDcE4w-5" value="" style="edgeStyle=orthogonalEdgeStyle;rounded=0;orthogonalLoop=1;jettySize=auto;html=1;" edge="1" parent="1" source="18vE8TkWJ5ZGs5HDcE4w-2" target="18vE8TkWJ5ZGs5HDcE4w-4">
          <mxGeometry relative="1" as="geometry" />
        </mxCell>
        <mxCell id="18vE8TkWJ5ZGs5HDcE4w-2" value="แสดงผล Hello Wolrd." style="shape=parallelogram;perimeter=parallelogramPerimeter;whiteSpace=wrap;html=1;fixedSize=1;strokeWidth=2;" vertex="1" parent="1">
          <mxGeometry x="348" y="170" width="155" height="60" as="geometry" />
        </mxCell>
        <mxCell id="18vE8TkWJ5ZGs5HDcE4w-4" value="end" style="strokeWidth=2;html=1;shape=mxgraph.flowchart.start_1;whiteSpace=wrap;" vertex="1" parent="1">
          <mxGeometry x="375.5" y="270" width="100" height="60" as="geometry" />
        </mxCell>
      </root>
    </mxGraphModel>
  </diagram>
</mxfile>
